<?xml version="1.0" standalone="no"?>
<!DOCTYPE svg PUBLIC "-//W3C//DTD SVG 20010904//EN"
 "http://www.w3.org/TR/2001/REC-SVG-20010904/DTD/svg10.dtd">
<svg version="1.0" xmlns="http://www.w3.org/2000/svg"
 width="300.000000pt" height="300.000000pt" viewBox="0 0 300.000000 300.000000"
 preserveAspectRatio="xMidYMid meet">
<metadata>
Created by potrace 1.10, written by Peter Selinger 2001-2011
</metadata>
<g transform="translate(0.000000,300.000000) scale(0.100000,-0.100000)"
fill="#dba633" stroke="none">
<path d="M657 2873 c-9 -15 31 -69 66 -88 42 -22 89 -15 132 19 42 34 26 43
-20 11 -21 -14 -47 -25 -57 -25 -20 0 -78 30 -78 40 -1 14 -38 52 -43 43z"/>
<path d="M606 2842 c-3 -6 8 -24 24 -42 42 -45 41 -95 -1 -138 -43 -44 -31
-61 13 -18 50 49 56 85 24 139 -29 50 -52 72 -60 59z"/>
<path d="M1284 2826 c-18 -8 -34 -18 -37 -23 -4 -6 -31 -8 -61 -5 -53 4 -57 3
-91 -31 -27 -27 -35 -43 -35 -71 0 -44 22 -91 50 -106 19 -10 19 -13 -18 -63
-50 -68 -55 -77 -43 -77 18 0 152 179 139 186 -6 4 -20 -3 -30 -16 l-19 -23
-22 21 c-52 52 -13 146 66 159 l38 6 -6 -44 -6 -44 14 31 c32 69 107 85 158
35 40 -41 41 -101 2 -138 -17 -16 -21 -24 -11 -20 23 8 33 -26 18 -63 -24 -58
-100 -79 -150 -41 l-24 19 23 20 c14 10 21 24 17 30 -4 7 -38 -14 -94 -60 -48
-39 -88 -74 -90 -79 -7 -18 12 -8 65 32 l55 41 21 -20 c50 -45 88 -52 143 -26
45 22 66 64 63 123 -2 29 3 58 14 78 36 68 11 140 -59 169 -41 17 -50 17 -90
0z"/>
<path d="M263 2771 c-18 -17 -215 -447 -250 -544 -7 -21 -10 -50 -6 -65 5 -22
106 -137 291 -331 39 -42 42 -48 42 -101 0 -91 18 -217 51 -350 34 -138 99
-329 129 -377 37 -61 25 -57 440 -143 l205 -43 37 -116 c157 -500 159 -505
193 -537 62 -58 147 -53 203 10 55 63 54 68 -73 467 -64 200 -123 374 -131
386 -26 41 -57 51 -289 99 -126 26 -232 49 -234 51 -3 2 0 8 5 13 12 12 435
-72 482 -97 50 -26 67 -53 108 -176 29 -90 44 -120 75 -152 39 -40 39 -41 39
-120 -1 -67 6 -103 42 -217 l43 -138 50 0 50 0 -3 322 -3 323 476 0 475 0 0
-306 c0 -271 -2 -308 -16 -313 -9 -3 -16 -6 -17 -6 -1 0 -1 133 1 295 l3 295
-441 0 -440 0 0 -377 0 -378 441 3 441 2 -4 40 c-2 27 1 41 10 45 22 8 22 7
22 -40 0 -45 0 -45 35 -45 l35 0 0 59 c0 43 6 70 24 102 37 65 46 124 56 334
10 217 21 269 86 405 38 78 46 106 47 157 3 116 -37 131 -371 142 -128 4 -237
12 -242 17 -4 5 -53 122 -108 259 l-99 250 48 264 c27 146 48 265 46 266 -1 2
-18 5 -37 9 l-35 6 -34 -188 c-18 -103 -60 -333 -92 -512 -32 -179 -59 -330
-59 -336 0 -7 16 -14 36 -16 32 -4 36 -2 41 23 l5 28 57 -28 c31 -16 77 -35
101 -42 l45 -14 -60 -3 c-33 -2 -106 -2 -163 0 -100 3 -102 3 -102 -19 l0 -23
393 1 c441 0 542 -9 590 -49 26 -22 22 -40 -33 -154 -57 -119 -80 -217 -80
-345 0 -165 -33 -373 -58 -373 -4 0 -7 160 -7 355 l0 355 33 0 32 0 0 56 0 56
43 -4 c39 -3 42 -1 45 25 l3 27 -750 2 -751 3 0 -24 c0 -22 -2 -23 -67 -17
-38 3 -117 8 -178 11 -60 3 -131 8 -156 11 l-46 6 -19 61 c-22 71 -27 288 -8
307 8 8 24 -9 59 -65 64 -103 74 -109 196 -106 109 2 271 -13 364 -34 50 -11
65 -11 93 0 64 27 75 121 18 159 -13 8 -61 22 -106 30 -92 18 -341 38 -374 31
-18 -4 -34 15 -96 112 -120 187 -157 222 -193 177 -28 -36 -97 -73 -159 -85
-74 -15 -152 2 -218 47 -27 19 -62 34 -77 34 -62 0 -123 66 -123 134 0 16 -23
48 -69 97 l-68 73 50 111 c27 60 76 172 108 247 58 134 59 138 45 172 -8 19
-23 39 -34 45 -32 17 -86 13 -109 -8z m95 -20 c7 -4 16 -21 21 -37 6 -23 -2
-51 -44 -144 -150 -333 -157 -351 -151 -373 3 -12 31 -49 63 -82 39 -41 59
-72 65 -100 19 -82 80 -145 142 -145 16 0 45 -12 64 -26 114 -87 280 -83 389
11 38 32 41 33 63 18 12 -9 59 -72 104 -142 46 -69 89 -131 97 -137 8 -6 80
-14 164 -18 152 -7 312 -33 340 -56 20 -17 19 -64 -2 -85 -18 -19 -8 -19 -208
9 -60 9 -167 16 -238 16 l-127 0 -33 47 c-60 87 -92 127 -102 126 -5 0 -18
-12 -29 -26 -15 -20 -20 -47 -23 -124 -4 -83 -1 -111 20 -181 l24 -83 -36 6
c-31 5 -40 2 -61 -20 -24 -25 -24 -26 -4 -45 14 -15 76 -32 237 -65 229 -47
272 -62 287 -98 6 -12 57 -171 115 -354 118 -373 124 -406 76 -454 -25 -24
-38 -29 -80 -29 -87 0 -89 4 -201 354 -55 170 -105 315 -112 323 -8 7 -135 38
-283 68 -149 30 -285 62 -303 70 -46 21 -66 59 -122 233 -62 191 -90 324 -98
474 l-7 118 -165 176 c-91 97 -169 183 -173 191 -9 15 221 542 250 576 17 18
59 23 81 8z m1832 -623 c-26 -141 -40 -248 -37 -271 4 -27 0 -48 -13 -70 -19
-32 -60 -234 -60 -293 0 -39 -19 -94 -32 -94 -6 0 -8 12 -5 28 4 15 31 164 62
332 119 659 114 636 122 612 3 -6 -14 -117 -37 -244z m-20 -360 c0 -7 34 -96
74 -198 41 -102 73 -186 72 -187 -1 -1 -49 17 -106 40 -84 35 -105 47 -104 63
3 49 49 294 56 294 5 0 8 -6 8 -12z m35 -363 c136 -54 138 -55 133 -60 -11
-11 -248 86 -248 100 0 4 6 5 13 2 6 -4 53 -22 102 -42z m159 -70 c3 -9 0 -15
-9 -15 -9 0 -12 6 -9 15 4 8 7 15 9 15 2 0 5 -7 9 -15z m331 -9 c156 -5 241
-22 266 -53 13 -15 12 -15 -10 -4 -51 28 -94 33 -311 40 -135 5 -234 12 -245
19 -16 9 -1 10 65 7 47 -3 153 -7 235 -9z m127 -128 c-7 -7 -12 -29 -12 -50 0
-30 -4 -38 -18 -38 -33 0 -42 -21 -42 -103 l0 -78 -27 20 c-26 21 -34 21 -487
21 -456 -1 -461 -1 -483 -22 -23 -21 -23 -22 -23 -325 l0 -304 -22 3 c-20 3
-29 20 -60 113 -31 93 -36 124 -37 203 l-1 93 -43 47 c-35 38 -49 65 -71 137
-51 166 -94 210 -236 240 -41 9 -76 18 -79 21 -3 3 51 2 119 -2 119 -6 126 -5
144 15 l19 21 686 0 c533 0 682 -3 673 -12z m-178 -605 c4 -152 7 -279 8 -282
0 -3 0 -34 -1 -68 l-1 -63 -410 0 -410 0 0 345 0 345 403 0 404 0 7 -277z
m111 -266 c-2 -23 -4 -55 -4 -70 -1 -16 -5 -26 -9 -23 -4 3 -7 24 -6 48 1 24
2 56 3 71 1 16 5 26 10 23 5 -3 8 -25 6 -49z m35 -3 c-18 -21 -24 -10 -9 18 8
14 14 18 17 10 2 -7 -2 -19 -8 -28z m-91 -65 c-16 -9 -29 -3 -29 16 0 18 34
24 38 6 2 -7 -2 -17 -9 -22z"/>
<path d="M2178 651 c-42 -21 -69 -59 -78 -112 -7 -38 -5 -50 16 -86 58 -100
182 -99 243 1 26 42 27 86 1 135 -35 70 -114 97 -182 62z m52 -53 l-1 -43 -18
35 c-20 37 -19 50 5 50 10 0 14 -12 14 -42z m43 36 c13 -5 12 -11 -5 -40 -11
-19 -22 -34 -23 -32 -3 4 6 78 10 78 2 0 10 -3 18 -6z m-80 -45 c10 -18 16
-33 15 -35 -2 -1 -18 6 -36 18 -26 16 -30 23 -21 34 16 20 22 18 42 -17z m137
1 c0 -6 -20 -18 -63 -38 -5 -2 2 12 15 31 17 27 26 33 35 25 7 -6 13 -14 13
-18z m-159 -37 l34 -18 -39 -3 c-44 -4 -49 -1 -40 22 8 20 4 20 45 -1z m182
-3 c5 -18 0 -20 -41 -20 l-47 1 35 19 c44 24 47 24 53 0z m-103 -24 c0 -11
-19 -15 -25 -6 -3 5 1 10 9 10 9 0 16 -2 16 -4z m-50 -11 c0 -2 -15 -12 -34
-23 -30 -18 -35 -18 -40 -5 -10 26 -7 28 34 29 22 1 40 0 40 -1z m150 -23 l0
-22 -40 20 c-22 11 -40 22 -40 25 0 2 18 4 40 2 34 -2 40 -5 40 -25z m-122
-40 c3 -37 1 -42 -17 -42 -25 0 -25 2 -5 41 21 41 9 50 -13 10 -20 -35 -26
-37 -42 -17 -9 11 -5 18 21 34 18 11 38 19 43 18 6 -1 11 -21 13 -44z m72 27
c16 -12 26 -28 23 -35 -8 -22 -20 -16 -42 21 -24 41 -21 43 19 14z m-31 -25
c26 -43 26 -44 1 -44 -14 0 -20 7 -20 24 0 13 -3 31 -6 40 -11 28 3 17 25 -20z"/>
<path d="M862 2761 c-38 -35 -52 -67 -45 -104 6 -31 68 -105 78 -95 4 4 -6 23
-24 43 -41 47 -42 95 -5 130 15 14 31 25 35 25 5 0 9 7 9 15 0 22 -12 19 -48
-14z"/>
<path d="M685 2622 c-35 -22 -60 -50 -52 -58 3 -4 20 5 37 19 43 37 66 41 101
20 25 -15 41 -35 66 -82 1 -1 6 0 12 3 15 10 -27 75 -63 97 -39 24 -63 24
-101 1z"/>
<path d="M620 2441 c-117 -38 -208 -140 -226 -251 l-7 -42 24 15 c13 9 32 38
41 64 39 109 131 173 250 173 86 0 141 -24 203 -91 56 -59 84 -120 86 -183 1
-25 6 -46 11 -46 5 0 18 20 29 45 33 75 22 98 -112 235 -55 55 -119 83 -203
86 -39 2 -82 0 -96 -5z"/>
<path d="M595 2336 c-53 -25 -80 -50 -114 -106 -27 -45 -27 -47 8 -55 52 -11
91 -69 91 -135 0 -44 -11 -72 -42 -107 l-20 -21 45 -27 c83 -48 138 -55 226
-29 73 21 144 92 165 165 20 65 20 92 1 155 -44 149 -219 227 -360 160z m221
-34 c21 -11 49 -31 61 -44 48 -51 79 -165 33 -123 -50 45 -269 -19 -278 -82
-5 -33 17 -102 39 -124 20 -20 20 -20 52 -1 18 11 63 27 100 35 63 14 68 14
65 -1 -5 -26 -93 -80 -143 -88 -47 -7 -132 9 -160 30 -16 12 -16 15 4 54 26
52 27 111 1 161 -18 37 -56 75 -82 83 -18 6 26 63 67 88 20 12 48 26 63 31 42
13 134 4 178 -19z m93 -219 c20 -71 17 -78 -38 -79 -59 -2 -151 -30 -168 -51
-10 -13 -13 -12 -22 5 -20 38 -24 97 -7 111 25 21 127 50 178 50 46 1 47 0 57
-36z"/>
<path d="M398 2120 c-28 -29 -30 -35 -26 -87 4 -46 10 -61 32 -80 99 -85 206
77 114 174 -32 34 -81 31 -120 -7z m92 -35 c27 -33 7 -95 -31 -95 -25 0 -49
27 -49 55 0 46 53 72 80 40z"/>
<path d="M156 1778 c-24 -37 -28 -98 -12 -188 13 -74 13 -86 1 -93 -8 -4 -15
-13 -15 -19 0 -29 245 -666 264 -685 29 -31 125 -63 208 -70 48 -4 68 -10 68
-19 0 -9 11 -14 28 -14 l27 0 -2 -122 -2 -122 -168 -52 c-143 -44 -168 -55
-168 -71 -1 -11 -8 -28 -18 -37 -17 -18 -23 -62 -9 -82 25 -39 90 -36 111 5
16 29 13 49 -9 71 -15 15 -17 22 -8 24 7 3 65 20 128 39 63 19 122 38 130 41
13 5 16 -1 14 -38 -1 -26 -9 -52 -18 -61 -17 -17 -21 -62 -8 -81 17 -26 51
-35 79 -22 42 20 52 61 25 98 -14 18 -22 44 -22 68 l0 39 128 -39 c70 -21 133
-41 141 -43 11 -4 11 -9 -3 -24 -25 -27 -17 -70 17 -95 26 -19 30 -19 55 -5
41 23 51 62 24 99 -12 16 -22 37 -22 47 0 15 -32 27 -170 68 l-170 50 0 123 0
122 25 0 c16 0 25 6 25 15 0 11 11 15 43 15 23 0 70 7 105 15 62 15 148 52
139 61 -2 3 -91 23 -198 45 -186 39 -199 40 -317 34 -67 -4 -135 -10 -151 -15
l-28 -8 -60 157 c-79 205 -78 201 -56 171 35 -50 94 -100 117 -100 l24 0 -20
53 c-30 80 -86 278 -99 354 -17 97 -120 313 -150 313 -5 0 -15 -10 -23 -22z
m84 -129 c32 -64 53 -123 64 -184 10 -49 33 -141 52 -202 19 -62 34 -118 34
-125 0 -7 -20 9 -45 36 -43 46 -46 48 -64 32 -17 -16 -20 -10 -71 124 -46 125
-51 143 -38 158 8 9 14 22 13 27 -1 6 -5 30 -8 55 -10 64 -15 169 -9 175 13
13 29 -8 72 -96z m233 -818 c119 17 268 10 409 -18 81 -16 134 -31 129 -36 -5
-5 -44 -15 -88 -21 -80 -12 -145 -35 -158 -56 -5 -8 -11 -8 -23 2 -28 24 -93
45 -172 57 -80 12 -161 47 -168 71 -3 11 -1 12 7 4 7 -7 30 -8 64 -3z m296
-405 c9 -10 8 -16 -4 -26 -20 -16 -38 -1 -29 23 8 21 18 22 33 3z m-341 -123
c1 -10 4 -35 8 -55 6 -36 5 -38 -20 -38 -36 0 -42 21 -19 69 20 44 28 50 31
24z m692 -68 c0 -20 -5 -25 -24 -25 -34 0 -40 14 -25 65 l13 44 18 -30 c10
-16 18 -41 18 -54z m-340 2 c0 -25 -3 -28 -27 -25 -34 4 -40 28 -17 63 15 24
17 24 30 8 7 -10 14 -31 14 -46z"/>
<path d="M1574 1331 c-2 -2 -4 -13 -4 -23 0 -17 12 -18 160 -18 159 0 160 0
160 23 0 22 -1 22 -156 22 -86 0 -158 -2 -160 -4z"/>
<path d="M1636 178 c-20 -38 -20 -37 2 -32 10 3 18 16 19 35 3 37 -2 37 -21
-3z"/>
</g>
</svg>
