 <svg  version="1.0" xmlns="http://www.w3.org/2000/svg"  width="300.000000pt" height="300.000000pt" viewBox="0 0 300.000000 300.000000"  preserveAspectRatio="xMidYMid meet">  <g transform="translate(0.000000,300.000000) scale(0.100000,-0.100000)" fill="#dba633" stroke="none"> <path d="M425 2606 c-46 -20 -94 -64 -118 -110 -20 -38 -22 -57 -25 -251 l-3 -210 -109 -111 c-122 -123 -164 -193 -158 -261 l3 -38 14 45 c24 82 53 123 165 238 l111 114 5 218 5 218 30 43 c35 49 83 77 151 87 27 4 499 5 1049 2 960 -5 1002 -6 1039 -24 21 -11 51 -37 66 -58 28 -38 28 -38 35 -260 l8 -223 112 -116 c117 -120 136 -147 163 -233 15 -47 16 -49 20 -21 5 37 -14 100 -41 140 -11 17 -66 77 -123 135 l-103 105 -3 210 c-3 194 -5 213 -25 251 -25 47 -73 91 -120 111 -47 19 -2103 19 -2148 -1z"/> <path d="M443 2544 c-37 -19 -79 -69 -89 -108 -5 -23 1 -34 49 -79 30 -29 60 -61 65 -73 10 -19 14 -110 13 -261 -1 -49 -4 -63 -16 -63 -13 0 -15 22 -15 135 0 117 -3 141 -20 176 -23 44 -43 57 -64 40 -31 -26 -31 -787 0 -829 10 -13 17 -15 31 -6 13 8 23 38 35 105 10 52 22 104 28 117 20 46 253 343 279 356 71 36 139 25 189 -28 28 -31 32 -43 32 -88 0 -58 -12 -84 -87 -180 -54 -71 -72 -121 -79 -218 -6 -83 10 -141 45 -160 21 -11 1287 -15 1316 -4 9 4 25 25 37 47 18 36 20 52 15 120 -8 95 -28 142 -106 250 -58 79 -61 87 -61 141 0 50 4 60 33 92 49 53 117 64 188 28 25 -12 198 -230 261 -327 19 -29 32 -71 43 -137 9 -52 21 -100 27 -107 16 -20 33 -15 49 13 11 22 14 107 13 478 0 505 1 498 -72 554 l-35 27 -1036 2 c-930 2 -1039 1 -1068 -13z m2114 -34 c68 -41 68 -38 71 -510 3 -423 0 -510 -19 -510 -6 0 -8 3 -6 8 10 14 -24 184 -43 220 -29 55 -251 343 -282 366 -16 11 -49 21 -80 23 -124 10 -219 -104 -184 -221 7 -24 38 -76 69 -117 31 -41 63 -92 72 -112 23 -56 31 -186 13 -220 l-14 -27 -654 0 -654 0 -14 27 c-18 34 -10 164 13 220 9 20 41 71 72 112 31 41 62 93 69 117 35 117 -60 231 -184 221 -31 -2 -64 -12 -80 -23 -31 -23 -253 -311 -282 -366 -19 -36 -53 -206 -43 -220 2 -5 0 -8 -6 -8 -18 0 -22 84 -19 450 l3 365 22 -35 c21 -32 23 -47 23 -174 0 -116 3 -143 17 -158 22 -24 49 -23 67 4 12 17 16 50 16 143 0 165 -15 213 -87 284 l-55 54 16 33 c9 19 30 43 48 54 32 20 52 20 1058 20 999 0 1026 -1 1057 -20z"/> <path d="M1236 2424 c-20 -20 -23 -233 -4 -252 17 -17 239 -17 256 0 8 8 12 50 12 123 0 146 1 145 -143 145 -83 0 -109 -3 -121 -16z m234 -130 l0 -104 -110 0 -110 0 0 104 c0 59 4 106 10 108 5 2 55 2 110 0 l100 -3 0 -105z"/> <path d="M1312 2364 c-18 -12 -22 -25 -22 -68 0 -28 5 -57 12 -64 7 -7 33 -12 58 -12 25 0 51 5 58 12 7 7 12 36 12 64 0 43 -4 56 -22 68 -12 9 -34 16 -48 16 -14 0 -36 -7 -48 -16z m96 -68 l3 -46 -50 0 -51 0 0 48 0 47 47 -1 48 -1 3 -47z"/> <path d="M958 2169 c-27 -15 -22 -45 16 -95 19 -25 40 -61 47 -81 16 -49 7 -130 -21 -186 l-24 -48 21 -21 c81 -81 161 152 104 303 -22 58 -87 139 -112 139 -8 0 -22 -5 -31 -11z m63 -51 c44 -47 69 -118 69 -198 0 -75 -22 -148 -50 -165 -23 -14 -23 6 -2 68 12 34 22 79 22 99 0 48 -31 129 -64 169 -14 17 -26 35 -26 40 0 17 29 9 51 -13z"/> <path d="M1959 2139 c-21 -23 -48 -67 -60 -98 -57 -151 23 -384 104 -303 l21 21 -24 48 c-28 56 -37 137 -21 186 7 20 28 56 47 81 38 51 43 80 15 96 -31 16 -42 12 -82 -31z m71 -4 c0 -3 -15 -28 -34 -55 -19 -28 -40 -66 -46 -86 -16 -48 -8 -131 17 -182 16 -34 18 -44 7 -53 -9 -8 -17 -4 -29 15 -49 74 -49 218 0 297 15 24 34 50 43 57 16 12 42 17 42 7z"/> <path d="M1467 1952 c-13 -14 -17 -38 -17 -95 l0 -77 -78 0 c-47 0 -83 -5 -90 -12 -17 -17 -17 -239 0 -256 17 -17 419 -17 436 0 17 17 17 429 0 446 -8 8 -50 12 -123 12 -96 0 -114 -3 -128 -18z m233 -222 l0 -200 -199 0 -200 0 -3 28 c-2 15 -1 63 2 107 l5 80 75 3 c41 2 80 8 87 14 9 7 13 37 13 89 l0 79 110 0 110 0 0 -200z"/> <path d="M1537 1892 c-20 -22 -23 -112 -5 -130 18 -18 103 -15 122 4 10 10 16 33 16 64 0 39 -4 52 -22 64 -31 22 -91 20 -111 -2z m103 -62 l0 -50 -45 0 -45 0 0 50 0 50 45 0 45 0 0 -50z"/> <path d="M1347 1702 c-24 -26 -23 -104 1 -125 24 -22 95 -22 116 -1 23 23 21 106 -2 127 -26 23 -94 22 -115 -1z m103 -62 l0 -50 -45 0 -45 0 0 50 0 50 45 0 45 0 0 -50z"/> <path d="M1537 1702 c-18 -20 -23 -97 -8 -121 5 -7 29 -16 55 -18 63 -8 86 13 86 77 0 33 -6 52 -18 63 -26 23 -94 22 -115 -1z m103 -62 l0 -50 -45 0 -45 0 0 50 0 50 45 0 45 0 0 -50z"/> <path d="M768 2035 c-25 -14 -248 -301 -274 -354 -7 -15 -23 -89 -36 -165 -13 -77 -28 -141 -34 -143 -19 -6 -76 49 -95 92 -16 34 -19 68 -19 236 0 159 -3 199 -15 209 -23 19 -50 3 -121 -73 -135 -145 -136 -179 -23 -629 97 -383 101 -427 56 -597 -16 -57 -27 -115 -25 -130 6 -48 27 -51 358 -50 168 1 316 4 329 8 44 12 46 27 29 221 -18 205 -26 227 -78 207 -48 -18 -46 0 4 44 62 54 88 108 94 191 7 105 -2 133 -68 202 -79 84 -90 109 -90 205 0 109 15 173 56 229 125 175 130 190 94 249 -20 34 -66 63 -97 63 -10 -1 -30 -7 -45 -15z m110 -51 c35 -40 28 -72 -34 -155 -76 -101 -93 -137 -110 -236 -12 -67 -13 -97 -4 -137 14 -63 50 -126 94 -163 52 -42 66 -77 66 -163 -1 -111 -18 -142 -128 -231 -18 -15 -11 -49 13 -65 17 -11 25 -11 49 1 16 8 29 15 30 15 0 0 2 -17 3 -38 6 -98 24 -299 28 -319 l5 -23 -345 0 c-325 0 -346 1 -341 18 3 9 20 76 37 147 25 103 30 142 26 190 -4 33 -45 215 -93 405 -110 443 -110 451 31 599 l70 74 5 -209 c5 -190 7 -213 27 -250 41 -77 126 -129 149 -92 4 6 18 76 30 154 12 79 28 153 35 166 27 53 243 330 263 338 31 13 68 3 94 -26z"/> <path d="M2129 2027 c-44 -29 -63 -69 -55 -113 4 -18 34 -70 68 -115 79 -108 89 -135 96 -255 4 -90 2 -107 -16 -146 -12 -24 -43 -64 -68 -88 -60 -57 -74 -92 -74 -182 0 -93 29 -157 95 -216 51 -45 53 -63 5 -45 -50 19 -62 -8 -75 -162 -18 -228 -18 -240 0 -255 15 -12 73 -15 339 -18 342 -2 368 1 374 45 2 11 -11 76 -27 144 -17 68 -31 146 -31 175 0 32 33 184 85 393 117 471 116 502 -22 650 -35 39 -73 73 -85 76 -41 14 -46 -8 -52 -229 -6 -202 -7 -211 -31 -248 -29 -43 -72 -75 -84 -62 -5 5 -14 45 -21 89 -34 215 -28 203 -166 386 -152 203 -183 225 -255 176z m84 -16 c22 -9 235 -280 266 -339 7 -13 23 -87 35 -166 12 -78 26 -148 30 -154 23 -37 108 15 149 92 20 37 22 60 27 250 l5 209 70 -74 c141 -149 142 -154 26 -619 -50 -200 -91 -385 -91 -410 0 -37 41 -232 66 -312 5 -17 -16 -18 -341 -18 l-345 0 4 23 c3 12 10 81 16 152 6 72 13 146 16 167 5 35 6 36 32 22 22 -11 30 -11 47 0 24 16 31 50 13 65 -110 89 -127 120 -128 231 0 86 14 121 66 163 44 37 80 100 94 163 9 40 8 70 -4 137 -17 99 -34 135 -110 236 -35 46 -56 84 -56 101 0 31 25 68 54 80 28 12 31 12 59 1z"/> <path d="M10 1538 c0 -21 38 -192 86 -380 97 -390 94 -349 34 -588 -39 -153 -40 -190 -7 -190 576 -2 839 0 847 5 15 9 13 68 -11 322 -20 218 -20 228 -3 262 12 25 19 67 22 142 4 92 1 113 -17 154 -12 26 -21 48 -21 49 0 0 252 1 560 1 308 0 560 -1 560 -2 0 -1 -9 -21 -21 -43 -19 -36 -21 -53 -17 -153 3 -81 9 -122 22 -148 17 -34 17 -44 -3 -262 -23 -253 -26 -313 -11 -322 5 -3 200 -6 432 -6 388 1 424 2 436 18 6 9 10 24 7 32 -35 121 -78 318 -78 366 0 43 22 149 81 382 73 288 100 430 72 382 -5 -9 -48 -170 -95 -358 -100 -402 -101 -410 -50 -611 42 -166 43 -180 13 -180 -221 -2 -793 2 -797 6 -3 3 5 121 17 262 l22 257 -23 61 c-19 53 -21 73 -16 155 3 52 12 108 19 125 29 68 62 64 -569 64 -643 0 -606 5 -570 -74 28 -61 26 -210 -2 -276 l-21 -49 21 -238 c12 -131 21 -250 21 -265 l0 -28 -410 0 -410 0 0 23 c0 12 16 85 35 162 45 179 45 231 -1 405 -19 74 -37 146 -40 160 -15 74 -98 387 -105 400 -6 10 -8 4 -9 -22z"/> </g> </svg> 