<?xml version="1.0" standalone="no"?>
<!DOCTYPE svg PUBLIC "-//W3C//DTD SVG 20010904//EN"
 "http://www.w3.org/TR/2001/REC-SVG-20010904/DTD/svg10.dtd">
<svg version="1.0" xmlns="http://www.w3.org/2000/svg"
 width="300.000000pt" height="300.000000pt" viewBox="0 0 300.000000 300.000000"
 preserveAspectRatio="xMidYMid meet">
<metadata>
Created by potrace 1.10, written by Peter Selinger 2001-2011
</metadata>
<g transform="translate(0.000000,300.000000) scale(0.100000,-0.100000)"
fill="#dba633" stroke="none">
<path d="M1395 2989 c-405 -31 -762 -341 -871 -754 -23 -86 -27 -121 -28 -250
0 -118 4 -163 18 -210 28 -94 75 -172 133 -226 30 -27 53 -49 50 -49 -2 0 -38
9 -81 20 -78 20 -119 18 -166 -5 -61 -31 -100 -104 -100 -185 0 -48 -1 -50
-28 -50 -47 0 -115 -41 -139 -85 -19 -34 -23 -55 -23 -138 0 -109 10 -138 60
-181 32 -27 104 -51 120 -41 6 4 10 -85 10 -247 0 -284 6 -311 71 -361 40 -30
16 -24 514 -131 373 -80 455 -96 455 -89 0 17 -99 44 -391 107 -189 41 -355
77 -369 79 -90 17 -166 40 -192 59 -54 38 -58 63 -58 336 0 271 0 270 -57 277
-48 6 -79 22 -106 55 -25 30 -27 37 -27 136 0 104 0 104 33 139 24 26 44 37
80 44 27 5 54 14 60 20 6 6 14 43 18 82 10 117 65 166 174 153 33 -3 80 -7
105 -8 64 -2 63 20 -4 93 -104 113 -131 196 -130 401 0 116 4 163 22 233 55
221 166 396 337 533 141 113 290 179 479 210 58 9 114 23 124 30 9 7 15 13 12
12 -3 0 -50 -4 -105 -9z"/>
<path d="M1520 2981 c15 -8 57 -17 130 -26 139 -17 363 -117 470 -209 162
-140 277 -321 325 -511 20 -79 25 -121 25 -248 1 -219 -22 -293 -132 -414 -62
-69 -61 -89 7 -86 182 9 183 9 212 -13 41 -30 63 -80 63 -145 0 -66 10 -78 78
-90 34 -7 56 -18 80 -44 31 -34 32 -36 32 -130 0 -135 -25 -177 -114 -194 -27
-5 -54 -15 -61 -22 -10 -11 -15 -80 -21 -279 -7 -282 -9 -291 -60 -325 -14 -9
-87 -29 -162 -45 -75 -17 -155 -34 -177 -40 -22 -5 -157 -35 -300 -65 -220
-47 -305 -72 -305 -89 0 -5 90 11 260 48 91 19 279 60 418 90 372 80 356 60
360 434 2 155 7 260 12 257 17 -10 88 15 121 42 46 39 59 79 59 184 0 81 -3
98 -26 137 -28 47 -85 81 -136 82 -27 0 -28 2 -28 50 0 81 -39 154 -100 185
-47 23 -88 25 -166 5 -43 -11 -79 -20 -81 -20 -3 0 20 22 50 49 58 54 105 132
133 226 14 47 18 92 18 210 -1 129 -5 164 -28 250 -96 364 -378 644 -740 735
-79 20 -246 28 -216 11z"/>
<path d="M1294 2920 c-175 -40 -337 -133 -469 -272 -129 -134 -198 -255 -247
-434 -18 -65 -22 -106 -22 -234 0 -135 3 -163 22 -214 30 -79 75 -148 130
-196 47 -42 66 -48 78 -28 4 7 7 120 6 253 -1 132 2 317 6 410 7 160 9 174 36
230 97 198 374 335 675 335 294 -1 568 -141 660 -340 l30 -65 7 -259 c6 -218
5 -258 -7 -254 -11 4 -15 43 -20 179 -5 171 -6 177 -37 244 -54 115 -190 230
-331 280 -23 8 -48 12 -55 9 -8 -3 -37 -36 -64 -73 -76 -101 -229 -243 -303
-280 -70 -35 -135 -41 -174 -15 -25 16 -26 15 -100 -54 -89 -85 -139 -112
-217 -120 -45 -4 -61 -10 -69 -24 -7 -13 -9 -94 -7 -226 4 -185 6 -213 26
-263 12 -31 30 -63 40 -71 9 -8 126 -38 259 -67 237 -51 245 -52 375 -48 73 2
144 7 158 10 14 4 113 25 220 48 107 23 202 48 212 56 28 25 59 112 65 184 4
49 10 69 19 69 11 0 14 -18 14 -69 0 -86 14 -103 59 -72 124 89 188 255 178
466 -6 128 -23 207 -70 326 -113 287 -390 522 -689 583 -105 22 -289 20 -394
-4z m444 -39 c320 -92 565 -342 653 -666 33 -118 33 -341 2 -440 -24 -74 -76
-151 -130 -192 l-32 -25 6 73 c5 63 4 74 -12 85 -44 32 -75 3 -75 -70 0 -56
-21 -140 -43 -170 -10 -13 -75 -31 -262 -72 -331 -72 -361 -72 -677 -4 -128
28 -243 55 -254 60 -44 18 -57 86 -62 320 l-4 215 60 1 c50 0 69 6 117 35 31
19 81 60 110 91 l54 58 36 -21 c34 -20 41 -21 91 -10 102 23 282 170 395 321
22 30 45 59 49 64 5 5 51 -12 107 -39 118 -58 209 -141 250 -231 23 -51 27
-74 35 -238 4 -100 11 -187 13 -194 3 -8 17 -12 37 -10 l33 3 -1 265 c-1 249
-2 268 -23 319 -98 239 -374 393 -706 393 -295 0 -541 -113 -667 -306 -65
-101 -68 -122 -74 -491 -3 -184 -1 -355 4 -387 5 -32 6 -58 2 -58 -16 0 -90
74 -119 118 -100 156 -93 463 17 696 130 277 381 472 680 526 83 16 308 4 390
-19z"/>
<path d="M1136 1928 c-9 -13 -16 -43 -16 -71 0 -26 -4 -46 -8 -43 -18 11 -81
-15 -87 -35 -12 -36 20 -59 71 -52 28 4 61 0 95 -11 51 -17 53 -17 72 3 18 17
19 24 9 46 -6 14 -18 25 -27 25 -12 0 -14 8 -9 40 8 46 0 83 -22 104 -22 23
-60 20 -78 -6z m64 -23 c8 -10 11 -32 7 -63 -4 -39 -2 -51 16 -69 26 -29 17
-38 -24 -24 -18 6 -56 11 -85 11 -30 0 -54 5 -54 10 0 6 13 10 29 10 37 0 61
31 61 80 0 52 25 75 50 45z"/>
<path d="M1786 1931 c-22 -24 -31 -83 -17 -110 10 -18 8 -23 -13 -32 -13 -6
-27 -20 -29 -31 -7 -26 29 -62 51 -53 47 19 90 27 129 21 46 -6 73 10 73 43 0
26 -23 42 -62 44 -34 2 -34 3 -34 48 1 76 -56 117 -98 70z m59 -22 c4 -6 7
-27 7 -47 -1 -54 21 -82 63 -82 19 0 35 -4 35 -10 0 -5 -23 -10 -51 -10 -29 0
-69 -5 -90 -12 -48 -14 -60 -5 -30 23 19 18 21 27 16 64 -4 25 -2 51 4 64 13
23 36 28 46 10z"/>
<path d="M1332 1638 c-42 -42 39 -143 130 -163 78 -18 182 31 215 100 16 33
15 36 -2 55 -27 30 -43 25 -89 -25 -38 -40 -47 -45 -86 -45 -39 0 -48 5 -86
45 -43 46 -61 54 -82 33z m68 -63 c63 -65 134 -65 202 2 21 20 40 34 44 31 13
-13 -9 -50 -44 -73 -74 -48 -157 -41 -219 18 -31 29 -43 57 -25 57 4 0 23 -16
42 -35z"/>
<path d="M1338 2735 c-180 -34 -338 -123 -423 -238 -27 -36 -27 -38 -9 -51 21
-16 21 -16 86 31 63 46 199 107 280 127 135 33 285 34 460 2 51 -9 196 -73
252 -112 98 -67 104 -70 117 -57 20 20 -8 69 -75 129 -73 67 -209 135 -316
159 -103 24 -276 28 -372 10z m279 -26 c170 -23 306 -84 415 -187 80 -76 92
-104 16 -38 -132 115 -333 180 -553 179 -131 -1 -235 -20 -341 -63 -83 -33
-208 -110 -223 -138 -5 -9 -13 -13 -18 -8 -4 4 20 34 53 65 169 155 404 224
651 190z"/>
<path d="M1357 2600 c-81 -13 -216 -61 -284 -101 -81 -48 -174 -144 -209 -215
-37 -75 -47 -201 -19 -224 25 -21 83 -16 135 10 52 27 147 122 198 198 44 66
64 69 56 9 -12 -82 38 -98 140 -45 69 37 268 228 301 290 l20 38 -22 21 c-19
19 -34 22 -140 25 -65 1 -144 -1 -176 -6z m311 -35 c9 -8 -100 -135 -175 -204
-101 -94 -218 -154 -237 -123 -2 4 1 27 7 50 9 36 9 45 -5 58 -27 27 -59 9
-98 -52 -45 -72 -139 -168 -189 -194 -22 -11 -58 -20 -81 -20 l-40 0 6 58 c8
76 21 117 56 174 76 124 270 231 467 259 54 8 280 3 289 -6z"/>
<path d="M485 1468 c-53 -31 -75 -73 -75 -145 0 -60 1 -63 45 -106 l45 -45 0
-115 0 -116 -45 -45 -45 -46 -1 -118 c-3 -261 3 -386 18 -419 18 -38 63 -69
113 -77 19 -3 55 -10 80 -16 25 -6 56 -13 70 -16 14 -2 75 -15 135 -28 482
-107 503 -111 525 -91 19 17 20 30 20 382 0 199 4 363 8 363 5 0 12 -167 15
-371 7 -435 1 -409 107 -409 114 0 105 -54 105 625 0 676 8 625 -99 625 -100
0 -103 -5 -108 -165 -4 -127 -9 -157 -24 -142 -4 3 -6 67 -5 140 1 115 -1 138
-16 155 -14 16 -55 29 -168 52 -173 37 -147 31 -300 65 -370 81 -369 81 -400
63z m468 -109 l387 -84 0 -153 0 -152 25 -12 c21 -9 28 -8 46 8 19 17 20 27
17 161 l-3 143 75 0 75 0 0 -590 0 -590 -75 0 -75 0 3 370 c2 358 2 370 -18
390 -20 20 -47 18 -62 -4 -4 -6 -8 -176 -8 -378 0 -203 -1 -368 -3 -368 -25 0
-842 183 -856 192 -37 23 -41 52 -41 303 l0 244 43 44 c49 49 57 74 57 185 0
88 -23 146 -70 177 -28 19 -30 24 -30 80 0 86 36 130 100 121 14 -1 199 -41
413 -87z"/>
<path d="M2055 1393 c-313 -68 -393 -89 -407 -105 -17 -19 -18 -62 -18 -603 0
-551 1 -583 18 -598 10 -10 25 -17 33 -17 8 0 198 40 423 89 l409 89 36 36 36
36 3 265 3 265 -45 43 c-54 53 -59 70 -55 187 l4 91 48 44 c45 43 47 46 47
101 0 32 -7 71 -17 91 -19 40 -66 73 -103 72 -14 0 -200 -39 -415 -86z m483
21 c18 -20 22 -37 22 -87 0 -58 -2 -63 -30 -82 -47 -31 -70 -89 -70 -177 0
-111 8 -136 57 -185 l43 -44 0 -244 c0 -251 -4 -280 -41 -303 -11 -7 -143 -39
-292 -72 -150 -32 -284 -61 -298 -64 -157 -35 -258 -56 -263 -56 -3 0 -6 264
-6 588 l0 587 398 87 c220 48 410 85 427 82 17 -2 40 -15 53 -30z"/>
<path d="M2141 1114 c-135 -30 -251 -60 -258 -66 -19 -15 -12 -48 12 -63 17
-10 61 -3 270 44 138 31 256 60 263 64 28 19 6 78 -27 76 -9 -1 -126 -26 -260
-55z m269 8 c0 -10 -446 -111 -494 -112 -59 -1 24 24 224 69 232 51 270 57
270 43z"/>
<path d="M2147 951 c-269 -58 -286 -66 -272 -110 3 -11 13 -22 21 -25 8 -3
129 19 269 49 140 30 257 55 259 55 3 0 10 9 16 20 12 22 0 54 -22 62 -7 3
-129 -20 -271 -51z m263 9 c0 -5 -10 -12 -22 -15 -166 -38 -445 -95 -465 -95
-58 0 0 18 220 66 253 56 267 59 267 44z"/>
<path d="M253 1185 l-35 -35 4 -101 c3 -99 3 -101 36 -130 27 -25 41 -29 88
-29 99 0 134 43 134 165 0 124 -33 165 -133 165 -54 0 -62 -3 -94 -35z m171
-16 c25 -19 26 -25 26 -110 0 -82 -2 -92 -25 -114 -35 -36 -115 -36 -150 0
-23 22 -25 32 -25 114 0 85 1 91 26 110 19 15 41 21 74 21 33 0 55 -6 74 -21z"/>
<path d="M2558 1191 c-32 -28 -33 -33 -37 -116 -5 -138 27 -185 128 -185 100
0 131 41 131 176 0 85 -1 87 -34 120 -31 31 -39 34 -95 34 -53 0 -65 -4 -93
-29z m166 -22 c25 -19 26 -25 26 -110 0 -82 -2 -92 -25 -114 -35 -36 -115 -36
-150 0 -23 22 -25 32 -25 110 0 78 2 88 25 110 32 33 110 35 149 4z"/>
</g>
</svg>
