<?xml version="1.0" standalone="no"?>
<!DOCTYPE svg PUBLIC "-//W3C//DTD SVG 20010904//EN"
 "http://www.w3.org/TR/2001/REC-SVG-20010904/DTD/svg10.dtd">
<svg version="1.0" xmlns="http://www.w3.org/2000/svg"
 width="300.000000pt" height="300.000000pt" viewBox="0 0 300.000000 300.000000"
 preserveAspectRatio="xMidYMid meet">
<metadata>
Created by potrace 1.10, written by Peter Selinger 2001-2011
</metadata>
<g transform="translate(0.000000,300.000000) scale(0.100000,-0.100000)"
fill="#dba633" stroke="none">
<path d="M2318 2989 c-41 -4 -69 -15 -95 -35 -47 -35 -43 -30 -159 -201 l-97
-143 -816 0 c-799 0 -817 -1 -861 -21 -55 -25 -95 -62 -123 -114 -22 -40 -22
-42 -25 -824 -2 -545 1 -801 8 -838 15 -69 61 -130 125 -162 l49 -26 488 0
c268 0 488 -1 488 -2 0 -3 -61 -258 -66 -275 -5 -16 -19 -18 -102 -18 -82 0
-103 -4 -137 -23 -51 -29 -83 -77 -91 -138 l-7 -49 -98 0 c-86 0 -102 -3 -119
-20 -27 -27 -26 -65 2 -84 37 -26 55 -20 28 8 -41 45 -23 56 88 56 115 0 126
7 135 83 14 100 57 129 205 135 91 4 104 7 114 25 16 30 70 266 66 290 -6 45
-25 47 -523 47 -529 0 -523 0 -581 76 l-29 37 -3 837 -2 837 30 41 c16 23 48
51 69 62 39 20 56 20 859 20 766 0 821 1 840 18 12 9 60 76 108 147 111 167
133 189 214 220 l66 25 64 -25 c74 -29 115 -64 141 -120 22 -48 24 -133 4
-181 -8 -19 -12 -41 -8 -50 7 -19 44 -34 84 -34 34 0 83 -22 117 -54 55 -49
52 -11 52 -897 0 -801 -1 -821 -20 -860 -23 -45 -82 -87 -131 -95 -19 -3 -241
-6 -495 -7 -495 -2 -494 -2 -494 -53 0 -30 55 -257 69 -282 9 -17 24 -20 113
-24 57 -3 115 -10 129 -17 40 -20 69 -65 76 -118 7 -57 28 -85 63 -82 14 0 58
1 98 0 84 -1 100 -16 62 -57 -27 -28 -9 -34 28 -8 28 19 29 57 2 84 -17 17
-33 20 -119 20 l-98 0 -6 45 c-9 61 -30 98 -74 132 -34 26 -44 28 -144 31 -91
3 -109 6 -113 20 -5 17 -66 272 -66 275 0 1 222 2 493 2 l492 0 48 28 c61 36
103 94 117 161 7 35 10 301 8 837 -3 782 -3 784 -25 824 -42 79 -129 134 -211
135 l-42 0 16 25 c22 33 30 133 14 181 -41 129 -143 190 -292 173z"/>
<path d="M2277 2885 c-26 -18 -89 -103 -217 -296 -99 -148 -180 -275 -180
-282 0 -26 167 -157 200 -157 11 0 50 40 97 98 43 53 80 99 83 102 33 30 247
304 258 330 31 75 -6 178 -78 215 -46 24 -119 19 -163 -10z m160 -25 c18 -10
39 -30 48 -44 19 -28 22 -104 6 -134 -6 -11 -68 -89 -138 -174 -70 -86 -159
-194 -198 -242 -38 -47 -74 -85 -79 -83 -5 2 -46 30 -91 63 l-82 59 178 265
c104 154 192 274 210 288 40 28 102 29 146 2z"/>
<path d="M306 2501 c-17 -11 -40 -37 -53 -58 l-23 -38 0 -576 c0 -540 1 -577
18 -592 13 -12 42 -17 107 -19 85 -3 90 -4 93 -25 3 -22 1 -23 -85 -23 -135 0
-133 3 -133 -181 0 -170 7 -197 64 -247 l37 -32 1169 0 1169 0 37 32 c57 50
64 77 64 247 0 144 -1 151 -22 165 -20 14 -127 16 -950 16 -904 0 -928 0 -928
19 0 10 7 22 16 25 9 3 429 6 933 6 877 0 919 1 934 18 15 17 17 72 17 587 0
555 -1 570 -21 611 -32 67 -69 84 -177 84 l-91 0 -45 -52 c-25 -29 -148 -179
-275 -333 l-230 -280 6 -90 c5 -79 3 -96 -17 -142 -23 -55 -81 -116 -128 -135
-15 -6 -99 -14 -187 -18 -168 -6 -168 -6 -267 -68 -21 -13 -30 -14 -39 -5 -17
17 -38 118 -46 220 -17 253 94 406 312 430 27 3 57 12 66 20 9 8 77 104 150
214 108 163 131 204 122 217 -9 16 -73 17 -789 19 -757 3 -780 2 -808 -16z
m1582 -8 c-1 -5 -62 -96 -135 -204 l-132 -197 -68 -11 c-260 -45 -373 -246
-318 -564 18 -98 30 -138 48 -149 22 -14 64 -8 81 11 41 45 84 55 251 61 137
5 166 9 200 27 52 28 102 77 127 127 24 47 36 169 20 213 -9 28 -2 38 152 225
88 108 208 255 266 326 l105 131 83 0 c56 1 93 -4 112 -14 61 -32 60 -18 60
-650 l0 -575 -932 0 c-853 0 -933 -1 -950 -17 -22 -19 -23 -52 -4 -79 14 -19
35 -19 950 -19 l936 0 0 -158 0 -157 -34 -38 -34 -37 -1172 0 -1172 0 -34 37
-34 38 0 157 0 158 89 -3 c85 -4 91 -3 115 22 31 30 33 49 6 76 -17 17 -33 20
-115 20 l-95 0 0 575 c0 622 0 617 53 647 17 10 192 14 792 18 424 3 774 6
778 8 5 1 7 -1 5 -5z"/>
<path d="M614 1225 c-19 -29 -11 -60 20 -81 57 -37 118 44 68 89 -28 25 -69
21 -88 -8z m65 -14 c19 -12 6 -41 -19 -41 -13 0 -20 7 -20 18 0 31 14 39 39
23z"/>
<path d="M1760 2139 c-33 -50 -60 -94 -60 -98 0 -23 164 -145 184 -138 14 6
104 109 132 152 8 12 11 30 8 40 -10 24 -161 135 -185 135 -13 0 -38 -28 -79
-91z m187 -127 c-33 -40 -63 -75 -66 -77 -4 -2 -33 17 -66 42 -33 24 -67 48
-75 53 -11 7 -3 25 43 94 l57 85 83 -62 84 -62 -60 -73z"/>
<path d="M1506 1984 c-35 -11 -65 -31 -106 -72 -48 -49 -59 -67 -75 -124 -21
-79 -18 -238 6 -276 16 -26 32 -27 89 -7 30 10 83 15 174 15 117 0 137 3 176
23 68 34 104 92 108 175 2 42 -2 76 -10 92 -7 14 -63 62 -123 108 -122 91
-140 96 -239 66z m209 -80 c50 -37 99 -72 109 -80 38 -26 38 -150 -1 -202 -43
-58 -74 -67 -233 -68 -125 0 -152 -3 -192 -21 l-47 -21 -7 65 c-22 211 36 334
178 378 79 25 96 20 193 -51z"/>
<path d="M1420 648 c-21 -11 -30 -32 -57 -138 -35 -136 -39 -180 -21 -198 17
-17 299 -17 316 0 7 7 12 22 12 35 0 44 -61 282 -76 294 -21 18 -144 23 -174
7z m169 -65 c22 -85 61 -242 61 -247 0 -3 -67 -6 -150 -6 -82 0 -150 2 -150 4
0 4 47 194 61 249 l10 37 79 0 79 0 10 -37z"/>
<path d="M1054 240 c-57 -23 -82 -102 -44 -140 19 -19 33 -20 494 -20 l475 0
15 22 c24 34 20 74 -13 110 l-29 33 -439 2 c-241 1 -448 -2 -459 -7z m910 -46
c9 -8 16 -29 16 -45 l0 -29 -480 0 -480 0 0 27 c0 14 7 35 17 45 15 17 43 18
464 18 394 0 449 -2 463 -16z"/>
</g>
</svg>
